<?xml version="1.0" encoding="utf-8"?>
<!-- Generator: Adobe Illustrator 21.0.0, SVG Export Plug-In . SVG Version: 6.00 Build 0)  -->
<svg version="1.1" id="Layer_1" xmlns="http://www.w3.org/2000/svg" xmlns:xlink="http://www.w3.org/1999/xlink" x="0px" y="0px"
	 viewBox="0 0 1200 1200" style="enable-background:new 0 0 1200 1200;" xml:space="preserve">
<style type="text/css">
	.st0{fill-rule:evenodd;clip-rule:evenodd;fill:#404040;}
</style>
<path class="st0" d="M866.3,305.6c-3.7-13.7-8.2-27-13.5-39.8l44.7-54.9L834.1,228C766,110.7,627.4,47.1,490,78.5l-20.9-32.3
	l-2,38.4C332.4,126,244,250.2,243.5,385.9L180,402.7l66.1,25.3c1.8,13.7,4.5,27.5,8.2,41.2c26.1,97.7,95.2,172.5,181.5,209.5
	l-6,109.2l71.9-89.1c45.2,8.5,93,7.3,140.4-5.3c47.4-12.7,89.4-35.4,124.3-65.4l106.8,41.3l-59.7-91.6
	C869.8,502.5,892.4,403.3,866.3,305.6z M525.2,669.6l83-102.8l123.2,47.7c-28.4,21.4-61.3,37.8-97.8,47.6
	C597.2,671.8,560.5,674,525.2,669.6z M445.4,504.1l-7.7,139.7c-72.4-34.6-129.7-99.5-152.1-183.1c-1.7-6.5-3.2-12.9-4.5-19.4
	L445.4,504.1z M276.1,377.2c4.1-114.5,77.6-218.5,189.3-257.9l-10.8,210.6L276.1,377.2z M508.8,107.7
	c116.5-21.6,232.1,31.9,292.7,129.1l-178.4,48L508.8,107.7z M718.2,431.2l111-136.4c2.1,6.2,4.1,12.6,5.8,19.1
	c22.3,83.6,5,168.4-40.5,234.6L718.2,431.2z"/>
<g>
	<path d="M33.9,948.4c9.9-2,24.2-3.2,37.7-3.2c21,0,34.5,3.8,44,12.4c7.7,6.8,12,17.2,12,28.9c0,20.1-12.6,33.4-28.7,38.8v0.7
		c11.7,4.1,18.7,14.9,22.3,30.7c5,21.2,8.6,35.9,11.7,41.8h-20.3c-2.5-4.3-5.9-17.4-10.2-36.3c-4.5-21-12.6-28.9-30.5-29.6H53.6
		v65.9H33.9V948.4z M53.6,1017.7h20.1c21,0,34.3-11.5,34.3-28.9c0-19.6-14.2-28.2-35-28.4c-9.5,0-16.3,0.9-19.4,1.8V1017.7z"/>
	<path d="M166.8,1047.5c0.5,26.9,17.6,37.9,37.5,37.9c14.2,0,22.8-2.5,30.3-5.6l3.4,14.2c-7,3.2-19,6.8-36.4,6.8
		c-33.6,0-53.7-22.1-53.7-55.1c0-33,19.4-58.9,51.3-58.9c35.7,0,45.2,31.4,45.2,51.5c0,4.1-0.5,7.2-0.7,9.2H166.8z M225,1033.3
		c0.2-12.6-5.2-32.3-27.5-32.3c-20.1,0-28.9,18.5-30.5,32.3H225z"/>
	<path d="M329.4,1098.6l-1.6-13.8h-0.7c-6.1,8.6-17.8,16.3-33.4,16.3c-22.1,0-33.4-15.6-33.4-31.4c0-26.4,23.5-40.9,65.7-40.6v-2.2
		c0-9-2.5-25.3-24.8-25.3c-10.2,0-20.8,3.2-28.5,8.1l-4.5-13.1c9-5.9,22.1-9.7,35.9-9.7c33.4,0,41.5,22.8,41.5,44.7v40.9
		c0,9.5,0.5,18.8,1.8,26.2H329.4z M326.4,1042.8c-21.7-0.5-46.3,3.4-46.3,24.6c0,12.9,8.6,19,18.7,19c14.2,0,23.3-9,26.4-18.3
		c0.7-2,1.1-4.3,1.1-6.3V1042.8z"/>
	<path d="M472.1,938.2v132.1c0,9.7,0.2,20.8,0.9,28.2h-17.8l-0.9-19h-0.5c-6.1,12.2-19.4,21.5-37.3,21.5
		c-26.4,0-46.7-22.4-46.7-55.5c-0.2-36.3,22.4-58.7,49-58.7c16.7,0,28,7.9,33,16.7h0.5v-65.3H472.1z M452.3,1033.8
		c0-2.5-0.2-5.9-0.9-8.3c-2.9-12.6-13.8-23-28.7-23c-20.5,0-32.7,18.1-32.7,42.2c0,22.1,10.8,40.4,32.3,40.4
		c13.3,0,25.5-8.8,29.1-23.7c0.7-2.7,0.9-5.4,0.9-8.6V1033.8z"/>
	<path d="M682,1031.7c-1.1-21.2-2.5-46.7-2.3-65.7h-0.7c-5.2,17.8-11.5,36.8-19.2,57.8l-26.9,73.8h-14.9l-24.6-72.5
		c-7.2-21.5-13.3-41.1-17.6-59.2h-0.5c-0.5,19-1.6,44.5-2.9,67.3l-4.1,65.2h-18.7l10.6-152.2h25.1l26,73.6
		c6.3,18.7,11.5,35.4,15.4,51.3h0.7c3.8-15.4,9.3-32.1,16-51.3l27.1-73.6h25.1l9.5,152.2h-19.2L682,1031.7z"/>
	<path d="M834.9,1043c0,40.4-28,58-54.4,58c-29.6,0-52.4-21.7-52.4-56.2c0-36.6,23.9-58,54.2-58
		C813.7,986.8,834.9,1009.6,834.9,1043z M748.2,1044.1c0,23.9,13.8,42,33.2,42c19,0,33.2-17.9,33.2-42.5c0-18.5-9.3-42-32.7-42
		C758.4,1001.7,748.2,1023.4,748.2,1044.1z"/>
	<path d="M860.1,1023.4c0-12.9-0.2-23.9-0.9-34.1h17.4l0.7,21.5h0.9c5-14.7,16.9-23.9,30.3-23.9c2.3,0,3.8,0.2,5.6,0.7v18.7
		c-2-0.5-4.1-0.7-6.8-0.7c-14,0-23.9,10.6-26.6,25.5c-0.5,2.7-0.9,5.9-0.9,9.2v58.3h-19.6V1023.4z"/>
	<path d="M942.8,1047.5c0.5,26.9,17.6,37.9,37.5,37.9c14.2,0,22.8-2.5,30.3-5.6l3.4,14.2c-7,3.2-19,6.8-36.4,6.8
		c-33.6,0-53.7-22.1-53.7-55.1c0-33,19.4-58.9,51.3-58.9c35.7,0,45.2,31.4,45.2,51.5c0,4.1-0.5,7.2-0.7,9.2H942.8z M1001,1033.3
		c0.2-12.6-5.2-32.3-27.5-32.3c-20.1,0-28.9,18.5-30.5,32.3H1001z"/>
	<path d="M1037.4,1086.8c0-8.3,5.6-14.2,13.5-14.2c7.9,0,13.3,5.9,13.3,14.2c0,8.1-5.2,14.2-13.5,14.2
		C1042.8,1101,1037.4,1095,1037.4,1086.8z"/>
	<path d="M1084.2,1086.8c0-8.3,5.6-14.2,13.5-14.2c7.9,0,13.3,5.9,13.3,14.2c0,8.1-5.2,14.2-13.5,14.2
		C1089.6,1101,1084.2,1095,1084.2,1086.8z"/>
	<path d="M1130.9,1086.8c0-8.3,5.6-14.2,13.5-14.2s13.3,5.9,13.3,14.2c0,8.1-5.2,14.2-13.5,14.2
		C1136.4,1101,1130.9,1095,1130.9,1086.8z"/>
</g>
</svg>
